<svg xmlns="http://www.w3.org/2000/svg" width="58.855" height="30" viewBox="0 0 58.855 30"><defs><style>.a{fill:#133ab7;}.b{fill:#fff;}</style></defs><g transform="translate(-97 -10)"><g transform="translate(97 10)"><path class="a" d="M15.2,0a15,15,0,1,0,15,15A15,15,0,0,0,15.2,0Z" transform="translate(-0.2)"/><path class="b" d="M33.142,52.2h-.5c-.949,0-1.461.542-1.461,1.611v5.151c0,1.325-.452,1.792-1.506,1.792a2.511,2.511,0,0,1-2.033-1.024A1.735,1.735,0,0,0,26.5,61.463c0,1.386,1.3,2.229,3.69,2.229,2.922,0,4.458-1.461,4.458-4.684V53.8C34.648,52.728,34.12,52.2,33.142,52.2Zm4.518,2.605h-.346c-.843,0-1.491.392-1.491,1.611v5.527c0,1.22.617,1.611,1.521,1.611h.346c.843,0,1.446-.422,1.446-1.611V56.417C39.151,55.167,38.563,54.806,37.66,54.806Zm-.2-4.006a1.545,1.545,0,0,0-1.747,1.551c0,.964.693,1.566,1.792,1.566a1.548,1.548,0,0,0,1.747-1.566C39.271,51.387,38.578,50.8,37.464,50.8Zm7.3,3.916c-2.831,0-4.714,1.792-4.714,4.473,0,2.741,1.807,4.5,4.669,4.5,2.831,0,4.7-1.762,4.7-4.488A4.33,4.33,0,0,0,44.768,54.716Zm-.03,6.446A1.968,1.968,0,1,1,46.605,59.2,1.871,1.871,0,0,1,44.738,61.161Z" transform="translate(-22.539 -43.149)"/><g transform="translate(33.148 9.578)"><path class="a" d="M222.333,64.5a2.45,2.45,0,0,1,.828.136,1.784,1.784,0,0,1,.663.422,1.825,1.825,0,0,1,.437.723,2.889,2.889,0,0,1,.166,1.009,3.11,3.11,0,0,1-.136.934,2.041,2.041,0,0,1-.392.738,1.831,1.831,0,0,1-.663.5,2.2,2.2,0,0,1-.934.181h-2V64.5Zm-.075,3.78a1.306,1.306,0,0,0,.422-.075.942.942,0,0,0,.377-.241,1.119,1.119,0,0,0,.256-.437,2.035,2.035,0,0,0,.09-.648,2.6,2.6,0,0,0-.075-.633,1.192,1.192,0,0,0-.226-.482,1.062,1.062,0,0,0-.407-.316,1.542,1.542,0,0,0-.633-.105h-.723v2.922h.919Z" transform="translate(-220.3 -64.364)"/><path class="a" d="M254.524,64.5v4.639H253.5V64.5Z" transform="translate(-248.5 -64.364)"/><path class="a" d="M268.952,68.344a1.8,1.8,0,0,1-.663.136,2.444,2.444,0,0,1-.964-.181,2.1,2.1,0,0,1-.723-.512,2.161,2.161,0,0,1-.452-.768A2.728,2.728,0,0,1,266,66.07a2.874,2.874,0,0,1,.151-.964,2.372,2.372,0,0,1,.452-.783,2.136,2.136,0,0,1,.723-.527,2.445,2.445,0,0,1,.964-.2,2.148,2.148,0,0,1,.693.105,2.089,2.089,0,0,1,.6.316,1.844,1.844,0,0,1,.452.512,1.559,1.559,0,0,1,.211.708h-.979a1.045,1.045,0,0,0-.346-.587.99.99,0,0,0-.633-.2,1.209,1.209,0,0,0-.587.136,1.128,1.128,0,0,0-.392.361,1.414,1.414,0,0,0-.211.512,2.617,2.617,0,0,0-.075.587,2.384,2.384,0,0,0,.075.572,1.83,1.83,0,0,0,.211.5,1.128,1.128,0,0,0,.392.361,1.209,1.209,0,0,0,.587.136,1.139,1.139,0,0,0,.783-.256,1.118,1.118,0,0,0,.316-.738h-1.024v-.768h1.958v2.515h-.648l-.105-.527A1.556,1.556,0,0,1,268.952,68.344Z" transform="translate(-259.117 -63.6)"/><path class="a" d="M302.224,64.5v4.639H301.2V64.5Z" transform="translate(-289.016 -64.364)"/><path class="a" d="M312.6,65.358V64.5h3.81v.858h-1.386v3.78H314v-3.78Z" transform="translate(-298.699 -64.364)"/><path class="a" d="M338.186,64.5l1.732,4.639h-1.054l-.346-1.039h-1.732l-.361,1.039H335.4l1.762-4.639Zm.06,2.846-.587-1.7h-.015l-.6,1.7Z" transform="translate(-318.066 -64.364)"/><path class="a" d="M370.224,64.5v3.78h2.259v.858H369.2V64.5Z" transform="translate(-346.775 -64.364)"/><path class="a" d="M221.724,104.7v3.78h2.259v.858H220.7V104.7Z" transform="translate(-220.64 -98.51)"/><path class="a" d="M249.024,104.7v4.639H248V104.7Z" transform="translate(-243.828 -98.51)"/><path class="a" d="M265.068,104.7v.858h-2.244v1.069h1.943v.8h-1.943v1.913H261.8V104.7Z" transform="translate(-255.55 -98.51)"/><path class="a" d="M292.179,104.7v.858h-2.455v.994h2.244v.8h-2.244V108.5h2.5v.858H288.7v-4.639h3.479Z" transform="translate(-278.399 -98.51)"/></g></g></g></svg>