<svg xmlns="http://www.w3.org/2000/svg" width="34" height="38" viewBox="0 0 34 38"><defs><style>.a{fill:#074773;}</style></defs><path class="a" d="M40.233,40.316a6.509,6.509,0,0,0-5.047,2.34l-9.429-4.9a6.591,6.591,0,0,0,.666-2.953,7.427,7.427,0,0,0-.666-2.953l9.429-4.9a6.594,6.594,0,0,0,5.047,2.34,6.742,6.742,0,0,0,0-13.484,6.847,6.847,0,0,0-6.711,6.853,7.121,7.121,0,0,0,.444,2.452l-9.6,4.959a6.607,6.607,0,0,0-4.715-1.95A6.742,6.742,0,0,0,19.711,41.6a6.607,6.607,0,0,0,4.715-1.95l9.6,4.959a7.121,7.121,0,0,0-.444,2.452,6.711,6.711,0,1,0,6.656-6.742Zm0-22.12a4.513,4.513,0,1,1-4.493,4.457A4.472,4.472,0,0,1,40.233,18.2ZM19.711,39.369A4.513,4.513,0,1,1,24.2,34.856,4.52,4.52,0,0,1,19.711,39.369ZM40.233,51.516A4.513,4.513,0,1,1,44.726,47,4.52,4.52,0,0,1,40.233,51.516Z" transform="translate(-13 -15.8)"/></svg>