<svg xmlns="http://www.w3.org/2000/svg" width="22.344" height="21.222" viewBox="0 0 22.344 21.222"><defs><style>.a,.b,.c{fill:none;stroke:#959595;stroke-width:1.3px;}.a,.b{stroke-miterlimit:10;}.b,.c{stroke-linecap:round;}.c{stroke-linejoin:round;}</style></defs><g transform="translate(-1302.35 104.65)"><g transform="translate(1303 -104)"><rect class="a" width="13.338" height="1.595" rx="0.797" transform="translate(3.853)"/><rect class="a" width="17.07" height="10.287" rx="1" transform="translate(1.987 9.635)"/><path class="a" d="M921.636,189.128v-6.247a1.758,1.758,0,0,0-1.758-1.758h0a1.758,1.758,0,0,0-1.759,1.758v6.247" transform="translate(-912.521 -169.128)"/><path class="a" d="M940.972,184.456v-2.085a1.248,1.248,0,0,0-1.248-1.248h0a1.248,1.248,0,0,0-1.247,1.248v2.085" transform="translate(-925.401 -169.128)"/><line class="b" x2="4.851" transform="translate(12.024 15.327)"/><path class="a" d="M914.538,160.85h8.9s1.225-.033.691-1.039l-2.848-6.033a1.977,1.977,0,0,0-1.759-.967H908.9a1.977,1.977,0,0,0-1.759.967l-2.848,6.033c-.534,1.007.691,1.039.691,1.039h9.554Z" transform="translate(-903.688 -151.215)"/><line class="c" x2="21.044" transform="translate(0 19.922)"/></g></g></svg>