<svg xmlns="http://www.w3.org/2000/svg" width="20.409" height="20.712" viewBox="0 0 20.409 20.712"><defs><style>.a,.b,.c{fill:none;stroke:#414141;stroke-miterlimit:10;stroke-width:1.4px;}.a,.c{stroke-linecap:round;}.b,.c{stroke-linejoin:round;}</style></defs><g transform="translate(-875.357 -630.692)"><path class="a" d="M21,24.8h-17A1.009,1.009,0,0,1,3,23.795V21.306A1.009,1.009,0,0,1,4.006,20.3H21a1.009,1.009,0,0,1,1.006,1.006v2.489A1.009,1.009,0,0,1,21,24.8Z" transform="translate(873.057 615.445)"/><path class="a" d="M7.5,38.2v9.465a.994.994,0,0,0,1.006.976H23.24a.994.994,0,0,0,1.006-.976V38.2" transform="translate(869.688 602.045)"/><line class="b" y2="15.635" transform="translate(885.561 635.77)"/><path class="c" d="M23.086,7.2c-1.81.3-5.431.528-5.909-1.76A2.1,2.1,0,0,1,19.818,3.1C21.326,3.456,22.584,6.046,23.086,7.2Z" transform="translate(862.475 628.366)"/><path class="c" d="M40.8,7.2c1.81.3,5.431.528,5.909-1.76A2.093,2.093,0,0,0,44.069,3.1C42.56,3.456,41.328,6.046,40.8,7.2Z" transform="translate(844.761 628.366)"/></g></svg>