<svg xmlns="http://www.w3.org/2000/svg" width="23.164" height="20.433" viewBox="0 0 23.164 20.433"><defs><style>.a{fill:#414141;}</style></defs><g transform="translate(-2.5 -8.1)"><path class="a" d="M3.28,12.538H6.06a3.641,3.641,0,0,0,7.12,0h11.7a.78.78,0,0,0,0-1.561H13.18A3.638,3.638,0,0,0,6.06,11H3.28a.768.768,0,1,0,0,1.536ZM9.62,9.661a2.1,2.1,0,1,1-2.1,2.1A2.1,2.1,0,0,1,9.62,9.661Z"/><path class="a" d="M24.884,37.877H22.1a3.641,3.641,0,0,0-7.12,0H3.28a.78.78,0,0,0,0,1.561h11.7a3.641,3.641,0,0,0,7.12,0h2.78a.78.78,0,0,0,0-1.561Zm-6.34,2.877a2.1,2.1,0,1,1,2.1-2.1A2.1,2.1,0,0,1,18.544,40.754Z" transform="translate(0 -20.341)"/><path class="a" d="M24.884,64.777H13.18a3.641,3.641,0,0,0-7.12,0H3.28a.78.78,0,1,0,0,1.561H6.06a3.638,3.638,0,0,0,7.12-.024h11.7a.768.768,0,1,0,0-1.536ZM9.62,67.654a2.1,2.1,0,1,1,2.1-2.1A2.1,2.1,0,0,1,9.62,67.654Z" transform="translate(0 -40.682)"/></g></svg>