<svg xmlns="http://www.w3.org/2000/svg" width="30.003" height="30" viewBox="0 0 30.003 30"><defs><style>.a{fill:#e0192c;}.b{fill:#fff;}</style></defs><g transform="translate(-28.803)"><g transform="translate(28.803)"><path class="a" d="M83.644,67.244a15,15,0,1,0,15,15A15,15,0,0,0,83.644,67.244Z" transform="translate(-68.643 -67.244)"/><path class="b" d="M93.96,104.778h-.5c-.949,0-1.467.536-1.467,1.605v5.162c0,1.329-.449,1.8-1.5,1.8a2.543,2.543,0,0,1-2.037-1.019,1.727,1.727,0,0,0-1.139,1.726c0,1.381,1.295,2.227,3.694,2.227,2.918,0,4.454-1.467,4.454-4.678v-5.213C95.462,105.313,94.945,104.778,93.96,104.778Zm4.52,2.607h-.345c-.846,0-1.485.4-1.485,1.605v5.524c0,1.226.622,1.606,1.519,1.606h.345c.846,0,1.45-.414,1.45-1.606V108.99C99.965,107.748,99.378,107.385,98.48,107.385Zm-.19-4a1.543,1.543,0,0,0-1.743,1.554c0,.967.69,1.571,1.8,1.571a1.547,1.547,0,0,0,1.744-1.571C100.086,103.967,99.4,103.38,98.29,103.38Zm7.3,3.918c-2.832,0-4.713,1.8-4.713,4.471,0,2.745,1.813,4.506,4.661,4.506,2.831,0,4.7-1.761,4.7-4.488A4.31,4.31,0,0,0,105.586,107.3Zm-.035,6.439a1.962,1.962,0,1,1,1.864-1.951A1.857,1.857,0,0,1,105.551,113.737Z" transform="translate(-83.362 -95.731)"/></g></g></svg>