<svg xmlns="http://www.w3.org/2000/svg" width="35.858" height="18.507" viewBox="0 0 35.858 18.507"><defs><style>.a{fill:#e51937;}.b{fill:#f5f5f5;}</style></defs><path class="a" d="M31.4,29.757a9.483,9.483,0,0,0-8.471,5.162,9.48,9.48,0,0,0-8.47-5.162,9.256,9.256,0,1,0,0,18.507,9.481,9.481,0,0,0,8.47-5.162A9.482,9.482,0,0,0,31.4,48.264a9.256,9.256,0,1,0,0-18.507ZM14.457,45.926a6.917,6.917,0,1,1,7.068-6.915A7,7,0,0,1,14.457,45.926ZM30.539,42.56l-4.2-4.105L27.7,37.127l2.839,2.794,4.56-4.46,1.356,1.328Z" transform="translate(-4.999 -29.757)"/><rect class="a" width="16.194" height="16.194" rx="8.097" transform="translate(0.951 1.051)"/><path class="b" d="M25.229,42.919l-2.857,2.795-2.838-2.795-1.358,1.328,2.839,2.8L18.14,49.837,19.5,51.165l2.875-2.813,2.857,2.813,1.356-1.328-2.874-2.794,2.874-2.8Z" transform="translate(-12.904 -37.789)"/></svg>