<svg xmlns="http://www.w3.org/2000/svg" width="25" height="20" viewBox="0 0 25 20"><defs><style>.a{fill:#e51937;}</style></defs><g transform="translate(0 0)"><path class="a" d="M18.857,17H3.143A3.137,3.137,0,0,1,0,13.88V3.123A3.137,3.137,0,0,1,3.143,0H18.857A3.138,3.138,0,0,1,22,3.123V13.88A3.137,3.137,0,0,1,18.857,17ZM9.387,5.313c-.3,0-.49.239-.49.624v5.13c0,.379.192.623.489.623a.8.8,0,0,0,.392-.119L14.25,9.007a.613.613,0,0,0,.364-.5A.612.612,0,0,0,14.25,8L9.778,5.432A.793.793,0,0,0,9.387,5.313Z" transform="translate(3 0)"/><path class="a" d="M18.857,16.844H3.143A3.136,3.136,0,0,1,0,13.722V2.965A3.119,3.119,0,0,1,2.154,0,3.1,3.1,0,0,0,2,.967V11.724a3.137,3.137,0,0,0,3.143,3.124H20.857a3.157,3.157,0,0,0,.989-.158A3.134,3.134,0,0,1,18.857,16.844Z" transform="translate(0 3.156)"/></g></svg>