<svg xmlns="http://www.w3.org/2000/svg" width="20" height="24" viewBox="0 0 20 24"><defs><style>.a{fill:#e51937;}.b{fill:#f5f5f5;}</style></defs><path class="a" d="M4.928-.245l13.84.184V22.5H-.037L-.151,4.555Z" transform="translate(0.757 0.784)"/><rect class="b" width="8" height="1" rx="0.4" transform="translate(6 18)"/><path class="b" d="M7.5,7H2V6H7.5A.5.5,0,0,0,8,5.5V0H9V5.5A1.5,1.5,0,0,1,7.5,7Z" transform="translate(-2)"/><path class="a" d="M20,24H4a2,2,0,0,1-2-2V5.5l.146-.354,5-5L7.5,0H20a2,2,0,0,1,2,2V22A2,2,0,0,1,20,24ZM3,5.7V22a1,1,0,0,0,1,1H20a1,1,0,0,0,1-1V2a1,1,0,0,0-1-1H7.7Z" transform="translate(-2)"/><path class="b" d="M77.45,73.98h-.966v-5.6a.579.579,0,0,0-.536-.612H73.52a.579.579,0,0,0-.536.612v5.6h-.966c-.295,0-.373.2-.174.451l2.527,2.48a.446.446,0,0,0,.725,0l2.527-2.48C77.823,74.183,77.745,73.98,77.45,73.98Z" transform="translate(-64.401 -59.414)"/></svg>