<svg xmlns="http://www.w3.org/2000/svg" width="28.933" height="28" viewBox="0 0 28.933 28"><defs><style>.a{fill:#e51937;}</style></defs><g transform="translate(0 -2.87)"><path class="a" d="M32.2,16.761A12.965,12.965,0,0,0,6.471,15.233c-.1.588-2.618,13.9-3.189,16.863a.31.31,0,0,0,.428.329l8.973-4.163A12.955,12.955,0,0,0,32.2,16.761Zm-5.546,3.222a.4.4,0,0,1-.4.4l-1.714-.7-1.69-.641v1.2A1.05,1.05,0,0,1,21.8,21.277H12.755a1.05,1.05,0,0,1-1.047-1.035V14.268a1.05,1.05,0,0,1,1.047-1.035h9.02a1.05,1.05,0,0,1,1.047,1.035v1.2l1.714-.676,1.69-.664a.415.415,0,0,1,.4.4v5.456Z" transform="translate(-3.276 -1.579)"/></g></svg>