<svg xmlns="http://www.w3.org/2000/svg" width="26" height="26" viewBox="0 0 26 26"><defs><style>.a{fill:#e51937;}</style></defs><g transform="translate(0 1)"><path class="a" d="M10.617,26H6.358V19.268H10.63L10.617,26Zm-5.769-.008H2.7V15.416a3.421,3.421,0,0,0,2.041-1.248,3.391,3.391,0,0,0,2.678,1.309h.142a3.394,3.394,0,0,0,2.678-1.309,3.391,3.391,0,0,0,2.678,1.309h.145a3.391,3.391,0,0,0,2.678-1.309,3.393,3.393,0,0,0,2.681,1.309h.155a3.393,3.393,0,0,0,2.678-1.309,3.417,3.417,0,0,0,2.038,1.248V25.99H12.124V18.5a.761.761,0,0,0-.755-.765H5.6a.75.75,0,0,0-.529.221.776.776,0,0,0-.224.544v7.488Zm9.927-8.254a.761.761,0,0,0-.755.765v4.59a.761.761,0,0,0,.755.765h6.074a.761.761,0,0,0,.755-.765V18.5a.761.761,0,0,0-.755-.765Zm5.331,4.59H15.529l-.015-3.061h4.592v3.06Zm3.971-8.381h-.145A1.939,1.939,0,0,1,22.009,12V9.207H26V12A1.939,1.939,0,0,1,24.077,13.947Zm-5.507,0h-.136A1.943,1.943,0,0,1,16.511,12V9.207H20.5L20.493,12A1.944,1.944,0,0,1,18.57,13.947Zm-5.5,0h-.145A1.944,1.944,0,0,1,11,12V9.207H15l0,2.791A1.943,1.943,0,0,1,13.069,13.947Zm-5.5,0H7.421A1.943,1.943,0,0,1,5.5,12V9.207h4l0,2.791A1.942,1.942,0,0,1,7.566,13.947Zm-5.5,0H1.923A1.943,1.943,0,0,1,0,12V9.207H3.991V12A1.943,1.943,0,0,1,2.068,13.947Zm22.845-6.27H1.086L4.432,4.339H21.568l3.344,3.337Zm-3.8-4.865H4.876V0H21.112V2.811Z" transform="translate(0 -1)"/></g></svg>