<svg xmlns="http://www.w3.org/2000/svg" width="26" height="26.051" viewBox="0 0 26 26.051"><defs><style>.a{fill:#e51937;}</style></defs><path class="a" d="M37.55,15.845A4.142,4.142,0,0,0,36.3,12.8a4.062,4.062,0,0,0-3.043-1.3,4.357,4.357,0,0,0-4.345,4.345v.44l-9.6,5.646a4.268,4.268,0,0,0-6.508-.44,4.142,4.142,0,0,0-1.251,3.043,4.273,4.273,0,0,0,4.345,4.345,4.162,4.162,0,0,0,3.466-1.792l9.551,5.7v.423a4.273,4.273,0,0,0,4.345,4.345A4.142,4.142,0,0,0,36.3,36.3a4.2,4.2,0,0,0,1.251-3.094,4.3,4.3,0,0,0-7.827-2.485l-9.551-5.765.068-.423-.068-.338,9.619-5.748a3.924,3.924,0,0,0,3.466,1.741A4.142,4.142,0,0,0,36.3,18.938,4.2,4.2,0,0,0,37.55,15.845Z" transform="translate(-11.55 -11.5)"/></svg>